<svg xmlns="http://www.w3.org/2000/svg" width="16" height="16" viewBox="0 0 16 16" fill="none">
  <path d="M6.98 1.34a1.2 1.2 0 0 1 2.04 0l.43.75c.19.34.59.5.97.41l.85-.19a1.2 1.2 0 0 1 1.44 1.44l-.19.85c-.09.38.07.78.41.97l.75.43a1.2 1.2 0 0 1 0 2.04l-.75.43a.86.86 0 0 0-.41.97l.19.85a1.2 1.2 0 0 1-1.44 1.44l-.85-.19a.86.86 0 0 0-.97.41l-.43.75a1.2 1.2 0 0 1-2.04 0l-.43-.75a.86.86 0 0 0-.97-.41l-.85.19a1.2 1.2 0 0 1-1.44-1.44l.19-.85a.86.86 0 0 0-.41-.97l-.75-.43a1.2 1.2 0 0 1 0-2.04l.75-.43a.86.86 0 0 0 .41-.97l-.19-.85a1.2 1.2 0 0 1 1.44-1.44l.85.19c.38.09.78-.07.97-.41l.43-.75Z" fill="#AEBAD0"/>
  <circle cx="8" cy="8" r="2.15" fill="#1B222C"/>
</svg>
